<svg width="75" height="75" viewBox="0 0 75 75" fill="none" xmlns="http://www.w3.org/2000/svg">
<path d="M17.8354 35.719C20.0143 39.781 22.5168 43.6789 25.7821 47.2419C29.0414 50.8238 33.1064 54.0773 38.3676 56.8569C38.7582 57.0528 39.1305 57.0528 39.454 56.9201C39.9545 56.7243 40.4672 56.2947 40.9677 55.7767C41.3583 55.3723 41.8405 54.728 42.3471 54.0267C44.3673 51.2724 46.8759 47.8547 50.4098 49.5603C50.4892 49.5983 50.5502 49.6425 50.6234 49.6804L62.4215 56.699C62.4582 56.7179 62.5009 56.7622 62.5375 56.7811C64.0939 57.8867 64.7348 59.5987 64.7531 61.5318C64.7531 63.5028 64.0512 65.7202 63.0258 67.5838C61.6708 70.0539 59.6628 71.6901 57.3556 72.7704C55.1584 73.8191 52.7108 74.3814 50.361 74.7414C46.6684 75.3037 43.2138 74.9436 39.6798 73.8191C36.2192 72.7136 32.7402 70.8815 28.9377 68.4493L28.6569 68.2661C26.9113 67.1416 25.0253 65.9287 23.1759 64.5073C16.401 59.2133 9.50407 51.5756 5.01188 43.1672C1.23991 36.1043 -0.816978 28.4856 0.306069 21.2206C0.928628 17.2406 2.57658 13.6207 5.45744 11.2265C7.96598 9.1354 11.3412 7.98564 15.7174 8.38995C16.2179 8.42786 16.6696 8.73109 16.9015 9.17331L24.4638 22.4019C25.5685 23.8865 25.7089 25.3584 25.1047 26.8304C24.6042 28.037 23.591 29.1489 22.2116 30.1849C21.8026 30.545 21.3205 30.9114 20.8139 31.2905C19.1232 32.5603 17.2006 34.0259 17.8598 35.7569L17.8354 35.719ZM44.7702 4.77009C44.4589 4.74482 44.1659 4.65638 43.9035 4.5174C43.6288 4.3721 43.3908 4.17626 43.1955 3.94251C43.0002 3.70245 42.8476 3.43081 42.7499 3.12757C42.6645 2.83697 42.6278 2.52742 42.6523 2.20523L42.6584 2.16101C42.6828 1.85146 42.7682 1.56086 42.8964 1.30185L42.9208 1.25763C43.0551 0.992295 43.2382 0.758552 43.4518 0.575348C43.6777 0.373191 43.9462 0.215257 44.2392 0.114179C44.5138 0.0194177 44.8068 -0.0184866 45.1059 0.000465577L45.1669 0.00678296C47.2604 0.177352 49.2807 0.505856 51.2216 0.985978C53.1808 1.47242 55.0485 2.12311 56.8124 2.91278C58.5885 3.71509 60.2609 4.66901 61.8173 5.76824C63.3676 6.86746 64.8141 8.11199 66.1264 9.49549C67.4264 10.8664 68.6044 12.3762 69.6481 14.0124C70.6796 15.636 71.5768 17.3859 72.3336 19.2432C73.0661 21.0626 73.6642 22.9957 74.1159 25.0426C74.5553 27.0452 74.8544 29.1489 75.0009 31.3473L75.007 31.4547V31.5684C75.007 31.859 74.9582 32.1433 74.8666 32.4086C74.769 32.6929 74.6225 32.9456 74.4333 33.1667C74.244 33.3878 74.0182 33.571 73.7619 33.71C73.5238 33.8427 73.2492 33.9248 72.9623 33.9627L72.8402 33.9754H72.7243C72.4374 33.9817 72.1628 33.9311 71.9064 33.8301C71.6378 33.729 71.3876 33.5774 71.174 33.3815C70.9482 33.1794 70.7589 32.9267 70.6247 32.6424C70.4965 32.3707 70.411 32.0612 70.3927 31.7453C70.2646 29.7933 70.0082 27.9359 69.6237 26.186C69.2392 24.3982 68.7204 22.7115 68.0856 21.1258C67.4508 19.5338 66.6879 18.0429 65.8151 16.6657C64.9301 15.2696 63.9352 13.9935 62.8366 12.8311C61.7257 11.6624 60.5111 10.6137 59.1928 9.68502C57.8683 8.75004 56.4401 7.94142 54.9142 7.25914L54.8898 7.24651C53.3761 6.57055 51.7709 6.01462 50.0802 5.59767C48.3957 5.19967 46.6256 4.91539 44.7702 4.77009ZM39.6921 27.2979C39.3808 27.2663 39.0878 27.1652 38.8315 27.0262C38.5629 26.8746 38.3249 26.6725 38.1418 26.4324C37.9648 26.205 37.8244 25.9396 37.7328 25.6554C37.6474 25.39 37.6108 25.1058 37.623 24.8152C37.6291 24.733 37.6291 24.6699 37.6413 24.594C37.684 24.2908 37.7817 24.0065 37.9159 23.7602C38.0563 23.5011 38.2455 23.2737 38.4652 23.0905C38.685 22.9073 38.9413 22.762 39.216 22.6672C39.4723 22.5851 39.747 22.5409 40.0338 22.5535L40.2475 22.5725C41.1569 22.6736 42.0297 22.8378 42.872 23.0589C43.7265 23.2863 44.5382 23.5769 45.3012 23.9181L45.3256 23.9307C46.1007 24.2845 46.8271 24.6951 47.5046 25.1689C48.1881 25.649 48.8229 26.186 49.4088 26.7925C49.9887 27.3926 50.5136 28.0433 50.9775 28.7509C51.4413 29.4521 51.8442 30.2039 52.1921 31.0125C52.5277 31.8022 52.8085 32.6424 53.0282 33.5268C53.2419 34.3923 53.3944 35.3146 53.4921 36.2875C53.5226 36.6097 53.4921 36.9256 53.4128 37.2162L53.4067 37.2415C53.3212 37.5321 53.1747 37.8037 52.9977 38.0374L52.9916 38.0501C52.8024 38.2901 52.5705 38.486 52.3019 38.6376C52.0456 38.7829 51.7526 38.8777 51.4413 38.9092H51.4108C51.1117 38.9345 50.8188 38.9029 50.5441 38.8208C50.2511 38.7324 49.9826 38.5807 49.7506 38.3849H49.7445C49.5126 38.1891 49.3173 37.949 49.1708 37.6647C49.0304 37.3994 48.9389 37.0961 48.9084 36.7803V36.755C48.8412 36.0664 48.7314 35.4094 48.5788 34.784C48.4262 34.1459 48.2309 33.5521 47.9989 33.0025C47.767 32.4529 47.4984 31.9412 47.1933 31.4737C46.882 30.9999 46.5402 30.5703 46.1618 30.1786C45.7834 29.7869 45.3622 29.4332 44.9045 29.1173C44.4467 28.8014 43.9462 28.5235 43.403 28.2771L43.3725 28.2644C42.8415 28.0244 42.2677 27.8285 41.6635 27.6706C41.0287 27.4874 40.3756 27.3737 39.6921 27.2979ZM42.1335 16.4193H42.0724L41.9931 16.4067C41.7062 16.3751 41.4377 16.2867 41.1996 16.1603C40.9433 16.0214 40.7174 15.8381 40.5282 15.6234C40.3329 15.3959 40.1803 15.1369 40.0827 14.8463C39.9911 14.5747 39.9423 14.2841 39.9484 13.9745V13.8671L39.9606 13.766C39.9911 13.4754 40.0766 13.1975 40.1986 12.9511C40.3329 12.6858 40.5099 12.4457 40.7174 12.2562C40.9433 12.0477 41.2057 11.8898 41.4987 11.7824C41.7795 11.6813 42.0785 11.6371 42.3898 11.656C44.0133 11.7571 45.5575 11.9719 47.0163 12.2941C48.4811 12.6163 49.8666 13.0522 51.1545 13.5955C52.4545 14.1451 53.6691 14.8084 54.7921 15.5791C55.903 16.3435 56.9284 17.2217 57.85 18.2135C58.7655 19.1927 59.5834 20.2793 60.2914 21.4669C60.9933 22.642 61.5976 23.9181 62.0858 25.289C62.5619 26.6282 62.9403 28.0686 63.2089 29.61C63.4713 31.1262 63.63 32.7245 63.6789 34.4239L63.685 34.5123C63.685 34.8156 63.63 35.1125 63.5202 35.3841C63.4103 35.6684 63.2516 35.9211 63.0563 36.1422C62.8549 36.3696 62.6046 36.5529 62.3239 36.6792C62.0614 36.8055 61.7624 36.875 61.4511 36.8877H61.3473C61.0544 36.8814 60.7797 36.8245 60.5233 36.7171C60.2487 36.6034 60.0046 36.4391 59.797 36.237C59.5773 36.0222 59.4003 35.7695 59.2721 35.4789C59.1501 35.2009 59.0829 34.8977 59.0707 34.5692C59.0341 33.1541 58.8998 31.8211 58.6862 30.564C58.4726 29.2942 58.1674 28.1128 57.789 27.0262C57.4106 25.9396 56.9467 24.9415 56.4096 24.0255C55.8664 23.1031 55.2438 22.2756 54.548 21.5238C53.84 20.772 53.0587 20.0961 52.1982 19.5085C51.3315 18.9147 50.3732 18.403 49.3478 17.9734L49.3234 17.9608C48.2858 17.5375 47.175 17.1901 45.9848 16.9311C44.7885 16.672 43.5129 16.4952 42.1701 16.413L42.1335 16.4193Z" fill="white"/>
</svg>
