<svg width="80" height="81" viewBox="0 0 80 81" fill="none" xmlns="http://www.w3.org/2000/svg">
<g clip-path="url(#clip0_50_377)">
<path d="M0 39.1925V35.8591L26.6689 58.5284L0.348263 78.5805C0.118862 78.0737 0.000268521 77.5261 0 76.9724L0 39.212V39.1925ZM54.9184 35.2862C54.8774 36.6522 54.6522 38.0071 54.2486 39.3161C53.8935 40.4567 53.3309 41.5261 52.5877 42.4737C51.9086 43.3471 51.0306 44.0557 50.0226 44.544C49.0076 45.0197 47.8945 45.2645 46.7677 45.2602C46.2871 45.2634 45.8079 45.2087 45.3411 45.0974C44.894 44.9916 44.4637 44.8273 44.062 44.6091C43.6709 44.3992 43.3142 44.1337 43.0038 43.8214C42.8355 43.6555 42.681 43.477 42.5417 43.2875C41.9857 43.9065 41.2956 44.3981 40.5209 44.7268C39.7461 45.0555 38.9061 45.2132 38.0611 45.1885C37.4882 45.1922 36.9184 45.1064 36.3734 44.9346C35.8436 44.7574 35.3479 44.4956 34.9067 44.1599C34.4594 43.8148 34.0726 43.4014 33.7614 42.9359C33.4191 42.4275 33.1509 41.8753 32.9644 41.2953C32.5594 39.9728 32.4341 38.5842 32.5961 37.2133C32.7457 35.8859 33.0744 34.5835 33.5739 33.3396C34.0259 32.2221 34.6665 31.1858 35.4692 30.2732C36.206 29.4262 37.119 28.7406 38.1482 28.2615C39.1545 27.8154 40.2504 27.593 41.3562 27.6104C42.1851 27.6043 43.0113 27.7027 43.8141 27.9034C44.566 28.0958 45.2823 28.4011 45.9372 28.8083L47.0289 29.518C47.0922 29.5602 47.1429 29.618 47.1759 29.6855C47.2088 29.7529 47.2228 29.8277 47.2164 29.9021L46.2855 39.6352C46.1744 40.1242 46.2431 40.6356 46.4797 41.0805C46.6045 41.2243 46.764 41.3359 46.944 41.4052C47.124 41.4745 47.3188 41.4994 47.5111 41.4776C47.9022 41.4758 48.2816 41.3475 48.5894 41.113C48.9997 40.7749 49.3308 40.3554 49.5605 39.8826C49.8922 39.266 50.1377 38.6092 50.2905 37.9294C50.4748 37.1096 50.5801 36.2748 50.6053 35.4359C50.7169 33.8178 50.57 32.1927 50.17 30.6182C49.8331 29.3283 49.2013 28.1288 48.3215 27.1091C47.4782 26.149 46.4037 25.4065 45.1938 24.9477C43.8075 24.4403 42.3349 24.1929 40.8539 24.2185C39.8466 24.2124 38.8433 24.3439 37.8736 24.6091C36.9462 24.8695 36.0637 25.2623 35.2549 25.7745C34.4226 26.3022 33.6736 26.9448 33.0314 27.682C32.3556 28.4617 31.784 29.3214 31.3303 30.2406C30.8419 31.232 30.4625 32.2708 30.1984 33.3396C29.9222 34.4985 29.7563 35.6797 29.7028 36.8682C29.588 38.551 29.7348 40.241 30.1381 41.8813C30.4689 43.21 31.103 44.4493 31.9933 45.5076C32.8486 46.4901 33.9451 47.247 35.1812 47.7081C36.631 48.2317 38.1691 48.4857 39.7154 48.4568C40.1987 48.4564 40.6816 48.4303 41.162 48.3787C41.6576 48.3266 42.1733 48.2419 42.689 48.1378C43.2047 48.0336 43.6802 47.9229 44.1088 47.7992C44.4962 47.6891 44.8764 47.5565 45.2474 47.4021C45.2993 47.3806 45.355 47.3694 45.4114 47.3689C45.4677 47.3684 45.5237 47.3787 45.5759 47.3993C45.6282 47.4199 45.6757 47.4502 45.7159 47.4887C45.7561 47.5272 45.788 47.573 45.81 47.6234C45.8159 47.6601 45.8159 47.6975 45.81 47.7341L46.4864 50.4685C46.503 50.552 46.494 50.6384 46.4607 50.7171C46.4274 50.7958 46.3711 50.8632 46.2989 50.9112C45.8774 51.1738 45.4284 51.3921 44.9594 51.5622C44.4215 51.7673 43.8686 51.9327 43.3052 52.057C42.7026 52.198 42.0921 52.3045 41.4768 52.376C40.8655 52.4462 40.2505 52.481 39.635 52.4802C36.8042 52.5661 33.998 51.9452 31.4843 50.6768C30.3829 50.0919 29.3892 49.3328 28.5442 48.4307C27.6898 47.5036 26.9913 46.4512 26.4747 45.3122C25.9179 44.0751 25.5284 42.773 25.316 41.4385C25.0685 39.9037 24.981 38.3485 25.0548 36.7966C25.1141 35.289 25.3387 33.7918 25.7246 32.3305C26.089 30.9467 26.6195 29.6094 27.3052 28.3461C27.9549 27.1568 28.7658 26.0576 29.7162 25.0779C30.6483 24.1074 31.7171 23.27 32.8908 22.5909C34.0729 21.9096 35.3463 21.3903 36.6748 21.0479C38.0539 20.6945 39.4745 20.5172 40.9008 20.5206C43.5866 20.4526 46.2434 21.0746 48.6028 22.324C49.6714 22.9116 50.6387 23.6585 51.4692 24.5375C52.2894 25.43 52.9667 26.4373 53.4784 27.5258C54.0348 28.6853 54.4311 29.9112 54.6572 31.1716C54.902 32.5359 54.9896 33.9225 54.9184 35.3057V35.2862ZM37.7062 37.2393C37.6492 37.8435 37.6492 38.4515 37.7062 39.0557C37.741 39.4827 37.8497 39.9009 38.0276 40.2927C38.1484 40.5549 38.3406 40.7801 38.5835 40.9438C38.8223 41.088 39.0995 41.1605 39.3805 41.1521C39.5866 41.1517 39.7901 41.1072 39.9766 41.0219C40.1961 40.9116 40.3935 40.7638 40.5592 40.5857C40.7771 40.3558 40.9639 40.0998 41.1151 39.824C41.2989 39.4945 41.4535 39.1503 41.5772 38.7953L42.247 31.6339H42.1331C41.9681 31.6233 41.8025 31.6233 41.6375 31.6339C41.1165 31.6248 40.6005 31.734 40.1306 31.9529C39.6886 32.1724 39.3091 32.4944 39.0255 32.8904C38.6645 33.4317 38.3933 34.0249 38.2219 34.6482C37.9828 35.5011 37.8192 36.3723 37.7329 37.2523L37.7062 37.2393ZM0.10046 29.2901C0.669736 27.1221 3.83089 25.7289 5.5856 24.518V15.2146C5.5856 14.1786 6.00897 13.185 6.76257 12.4525C7.51617 11.7199 8.53827 11.3083 9.60402 11.3083H24.653L39.0188 1.36042C39.3865 1.11066 39.8248 0.977801 40.2734 0.980133C40.7219 0.982464 41.1587 1.11987 41.5237 1.37344L55.6417 11.3083H70.3759C71.4416 11.3083 72.4637 11.7199 73.2173 12.4525C73.9709 13.185 74.3943 14.1786 74.3943 15.2146V24.4919C76.283 25.794 79.9799 27.5648 79.9799 30.0193V30.1169L70.396 37.988V15.2016H9.60402V37.337L0.10046 29.2901ZM80 36.6534V76.9724C80.0016 77.9073 79.665 78.813 79.049 79.531L52.4671 59.212L80 36.6534ZM72.6329 80.9893H5.53202L30.6136 61.8813L38.0812 68.2289C38.5607 68.6377 39.1797 68.8582 39.8174 68.8474C40.4551 68.8366 41.0658 68.5952 41.5303 68.1703L48.442 62.5128L72.6128 80.9893H72.6329Z" fill="white"/>
</g>
<defs>
<clipPath id="clip0_50_377">
<rect width="80" height="80" fill="white" transform="translate(0 0.989258)"/>
</clipPath>
</defs>
</svg>
