<svg width="80" height="95" viewBox="0 0 80 95" fill="none" xmlns="http://www.w3.org/2000/svg">
<path fill-rule="evenodd" clip-rule="evenodd" d="M42.9909 56.546C42.7898 56.7005 42.547 56.7879 42.2957 56.7962C42.0443 56.8045 41.7965 56.7333 41.5861 56.5923C36.9459 53.6014 32.8258 49.8388 29.3958 45.4594C25.197 40.2363 22.3734 34.0006 21.1933 27.3452C20.219 21.168 21.148 15.2305 24.1692 10.3985C25.3889 8.43565 26.9206 6.69534 28.7009 5.24948C32.5964 1.92023 37.4936 0.0663882 42.568 0C47.4818 0.0811477 52.1873 2.0453 55.7553 5.50461C57.1256 6.79047 58.3107 8.26901 59.2749 9.89593C62.5 15.3078 63.1948 22.2658 61.7749 29.3167C60.5853 34.9118 58.3095 40.2053 55.0827 44.8828C51.856 49.5603 47.744 53.5265 42.9909 56.546ZM28.6405 57.1181V78.6263L51.4124 88.6768V60.9759C53.1277 59.6359 54.7551 58.1819 56.284 56.6233V88.4603L75.1661 78.7268V35.4321L67.9078 38.2926C68.6368 36.3228 69.2373 34.3057 69.7054 32.2545L76.7296 29.479C77.3288 29.2551 77.9901 29.2812 78.5708 29.5516C79.1514 29.8221 79.605 30.3152 79.8338 30.9248C79.9434 31.2105 79.9998 31.5147 80 31.8216V80.2962C80.002 80.7927 79.8593 81.2786 79.5903 81.6917C79.3212 82.1048 78.9379 82.4265 78.4894 82.6156L54.9245 94.7303C54.5827 94.9076 54.2049 95 53.8217 95C53.4386 95 53.0608 94.9076 52.719 94.7303L26.284 83.0021L3.53474 94.7303C3.24963 94.8783 2.93882 94.9673 2.62008 94.9921C2.30135 95.017 1.98095 94.9774 1.67721 94.8754C1.37346 94.7734 1.09234 94.6112 0.849907 94.3979C0.607477 94.1847 0.408498 93.9246 0.26435 93.6325C0.0932935 93.2846 0.00283785 92.901 8.23135e-08 92.5115V41.1609C-0.000136827 40.6212 0.170516 40.0961 0.486404 39.664C0.802292 39.2319 1.24641 38.9163 1.75227 38.7642L14.1239 33.8781C14.5832 35.4718 15.1279 37.0384 15.7553 38.5709L4.87915 42.8617V88.4758L23.7613 78.7422V51.8686C25.2811 53.7191 26.9105 55.4723 28.6405 57.1181ZM41.6541 10.986C43.7036 10.986 45.7071 11.6081 47.4112 12.7737C49.1153 13.9392 50.4435 15.5958 51.2278 17.534C52.0121 19.4722 52.2173 21.605 51.8175 23.6626C51.4177 25.7202 50.4307 27.6102 48.9815 29.0937C47.5323 30.5771 45.6858 31.5873 43.6757 31.9966C41.6656 32.4059 39.582 32.1958 37.6885 31.393C35.795 30.5902 34.1766 29.2306 33.0379 27.4863C31.8993 25.7419 31.2915 23.6911 31.2915 21.5932C31.2915 18.78 32.3833 16.082 34.3266 14.0928C36.27 12.1036 38.9058 10.986 41.6541 10.986Z" fill="white"/>
</svg>
