<svg width="48" height="48" viewBox="0 0 48 48" fill="none" xmlns="http://www.w3.org/2000/svg">
<path d="M24 0C10.7453 0 0 10.7848 0 24.0882C0 35.3845 7.74912 44.8637 18.2026 47.4672V31.4495H13.2538V24.0882H18.2026V20.9162C18.2026 12.7176 21.8995 8.91744 29.9194 8.91744C31.44 8.91744 34.0637 9.21709 35.137 9.51579V16.1882C34.5706 16.1285 33.5866 16.0986 32.3645 16.0986C28.4294 16.0986 26.9088 17.595 26.9088 21.4847V24.0882H34.7482L33.4013 31.4495H26.9088V48C38.7926 46.5595 48.001 36.404 48.001 24.0882C48 10.7848 37.2547 0 24 0Z" fill="black"/>
</svg>
