<svg width="36" height="35" viewBox="0 0 36 35" fill="none" xmlns="http://www.w3.org/2000/svg">
<path d="M18.2498 0C8.58499 0 0.75 7.86388 0.75 17.5643C0.75 25.8012 6.40032 32.7131 14.0225 34.6115V22.9319H10.4141V17.5643H14.0225V15.2514C14.0225 9.27324 16.7182 6.5023 22.5659 6.5023C23.6747 6.5023 25.5878 6.7208 26.3704 6.9386V11.8039C25.9574 11.7603 25.2399 11.7386 24.3488 11.7386C21.4795 11.7386 20.3707 12.8297 20.3707 15.6659V17.5643H26.0869L25.1048 22.9319H20.3707V35C29.0359 33.9497 35.7502 26.5446 35.7502 17.5643C35.7495 7.86388 27.9145 0 18.2498 0Z" fill="white"/>
</svg>
