<svg width="35" height="35" viewBox="0 0 35 35" fill="none" xmlns="http://www.w3.org/2000/svg">
<g clip-path="url(#clip0_50_1467)">
<path d="M17.4999 3.15135C22.1756 3.15135 22.7293 3.17185 24.5682 3.25388C26.2772 3.32908 27.2 3.61619 27.8152 3.85544C28.6287 4.16989 29.2166 4.5527 29.825 5.1611C30.4402 5.77633 30.8162 6.35738 31.1307 7.17085C31.3699 7.78608 31.657 8.71576 31.7322 10.4179C31.8142 12.2636 31.8348 12.8173 31.8348 17.4862C31.8348 22.162 31.8142 22.7157 31.7322 24.5545C31.657 26.2635 31.3699 27.1863 31.1307 27.8016C30.8162 28.615 30.4334 29.2029 29.825 29.8113C29.2098 30.4266 28.6287 30.8025 27.8152 31.117C27.2 31.3562 26.2703 31.6433 24.5682 31.7185C22.7225 31.8006 22.1688 31.8211 17.4999 31.8211C12.8241 31.8211 12.2704 31.8006 10.4316 31.7185C8.7226 31.6433 7.79975 31.3562 7.18452 31.117C6.37105 30.8025 5.78316 30.4197 5.17477 29.8113C4.55954 29.1961 4.18357 28.615 3.86911 27.8016C3.62986 27.1863 3.34275 26.2567 3.26756 24.5545C3.18553 22.7088 3.16502 22.1551 3.16502 17.4862C3.16502 12.8105 3.18553 12.2568 3.26756 10.4179C3.34275 8.70893 3.62986 7.78608 3.86911 7.17085C4.18357 6.35738 4.56638 5.76949 5.17477 5.1611C5.79 4.54587 6.37105 4.16989 7.18452 3.85544C7.79975 3.61619 8.72943 3.32908 10.4316 3.25388C12.2704 3.17185 12.8241 3.15135 17.4999 3.15135ZM17.4999 0C12.7489 0 12.1542 0.0205077 10.288 0.102538C8.42866 0.184569 7.15034 0.485348 6.04293 0.916009C4.88766 1.36718 3.91013 1.9619 2.93943 2.93943C1.9619 3.91013 1.36718 4.88766 0.91601 6.03609C0.485348 7.15034 0.184569 8.42182 0.102538 10.2812C0.0205077 12.1542 0 12.7489 0 17.4999C0 22.2508 0.0205077 22.8455 0.102538 24.7117C0.184569 26.5711 0.485348 27.8494 0.91601 28.9568C1.36718 30.1121 1.9619 31.0896 2.93943 32.0603C3.91013 33.031 4.88766 33.6326 6.03609 34.0769C7.15034 34.5076 8.42182 34.8084 10.2812 34.8904C12.1474 34.9724 12.7421 34.9929 17.493 34.9929C22.244 34.9929 22.8387 34.9724 24.7049 34.8904C26.5643 34.8084 27.8426 34.5076 28.95 34.0769C30.0984 33.6326 31.076 33.031 32.0467 32.0603C33.0174 31.0896 33.6189 30.1121 34.0633 28.9637C34.4939 27.8494 34.7947 26.5779 34.8767 24.7186C34.9588 22.8524 34.9793 22.2577 34.9793 17.5067C34.9793 12.7558 34.9588 12.1611 34.8767 10.2949C34.7947 8.43549 34.4939 7.15718 34.0633 6.04976C33.6326 4.88766 33.0379 3.91013 32.0603 2.93943C31.0896 1.96874 30.1121 1.36718 28.9637 0.922845C27.8494 0.492184 26.5779 0.191405 24.7186 0.109374C22.8456 0.0205077 22.2508 0 17.4999 0Z" fill="white"/>
<path d="M17.499 8.51068C12.5361 8.51068 8.50977 12.537 8.50977 17.4999C8.50977 22.4627 12.5361 26.4891 17.499 26.4891C22.4618 26.4891 26.4882 22.4627 26.4882 17.4999C26.4882 12.537 22.4618 8.51068 17.499 8.51068ZM17.499 23.3309C14.2793 23.3309 11.6679 20.7196 11.6679 17.4999C11.6679 14.2802 14.2793 11.6689 17.499 11.6689C20.7187 11.6689 23.33 14.2802 23.33 17.4999C23.33 20.7196 20.7187 23.3309 17.499 23.3309Z" fill="white"/>
<path d="M28.9433 8.15514C28.9433 9.31724 28 10.2538 26.8447 10.2538C25.6826 10.2538 24.7461 9.31041 24.7461 8.15514C24.7461 6.99304 25.6894 6.05652 26.8447 6.05652C28 6.05652 28.9433 6.99987 28.9433 8.15514Z" fill="white"/>
</g>
<defs>
<clipPath id="clip0_50_1467">
<rect width="34.9998" height="34.9998" fill="white"/>
</clipPath>
</defs>
</svg>
