<svg width="36" height="35" viewBox="0 0 36 35" fill="none" xmlns="http://www.w3.org/2000/svg">
<path fill-rule="evenodd" clip-rule="evenodd" d="M35.8745 17.5C35.8745 27.165 28.0396 35 18.3748 35C8.70991 35 0.875 27.165 0.875 17.5C0.875 7.83502 8.70991 0 18.3748 0C28.0396 0 35.8745 7.83502 35.8745 17.5ZM19.0019 12.9193C17.2998 13.6272 13.8979 15.0926 8.7964 17.3153C7.96799 17.6447 7.53404 17.967 7.49453 18.2821C7.42777 18.8147 8.09469 19.0244 9.00287 19.31C9.1264 19.3488 9.2544 19.3891 9.38563 19.4317C10.2791 19.7222 11.4811 20.062 12.1059 20.0755C12.6727 20.0877 13.3053 19.854 14.0037 19.3745C18.7702 16.1569 21.2307 14.5306 21.3852 14.4955C21.4942 14.4708 21.6452 14.4397 21.7475 14.5306C21.8498 14.6216 21.8398 14.7938 21.8289 14.84C21.7629 15.1217 19.1449 17.5556 17.7902 18.8151C17.3678 19.2078 17.0682 19.4863 17.007 19.5499C16.8698 19.6924 16.73 19.8272 16.5956 19.9567C15.7655 20.7569 15.143 21.357 16.6301 22.337C17.3447 22.8079 17.9165 23.1973 18.487 23.5858C19.11 24.0101 19.7314 24.4333 20.5354 24.9603C20.7403 25.0946 20.9359 25.2341 21.1264 25.3699C21.8515 25.8868 22.5029 26.3512 23.3076 26.2772C23.7753 26.2341 24.2583 25.7944 24.5036 24.483C25.0833 21.3837 26.2229 14.6686 26.4862 11.9014C26.5093 11.659 26.4803 11.3487 26.457 11.2125C26.4337 11.0763 26.3849 10.8822 26.2079 10.7386C25.9982 10.5684 25.6745 10.5326 25.5298 10.5351C24.8716 10.5467 23.8617 10.8979 19.0019 12.9193Z" fill="white"/>
</svg>
